<svg xmlns="http://www.w3.org/2000/svg" version="1.1" width="20.008in" height="7.172in" viewBox = " 0 0 1800.72 645.48" >
<!-- Front--> 
<g transform="translate(22.5, 22.5) " > 
<polygon style="stroke:#000000; fill:none; stroke-width:0.9" points="0, 0 43.56000000000002, 0 43.56000000000002, 10.62 87.12000000000003, 10.62 87.12000000000003, 0 114.12000000000003, 0 114.12000000000003, 10.62 141.12000000000003, 10.62 141.12000000000003, 0 168.12000000000003, 0 168.12000000000003, 10.62 195.12000000000003, 10.62 195.12000000000003, 0 222.12000000000003, 0 222.12000000000003, 10.62 249.12000000000003, 10.62 249.12000000000003, 0 276.12, 0 276.12, 10.62 303.12, 10.62 303.12, 0 330.12, 0 330.12, 10.62 357.12, 10.62 357.12, 0 384.12, 0 384.12, 10.62 411.12, 10.62 411.12, 0 438.12, 0 438.12, 10.62 465.12, 10.62 465.12, 0 492.12, 0 492.12, 10.62 519.12, 10.62 519.12, 0 546.12, 0 546.12, 10.62 573.12, 10.62 573.12, 0 600.12, 0 600.12, 10.62 643.6800000000001, 10.62 643.6800000000001, 0 687.24, 0 687.24, 34.56 676.62, 34.56 676.62, 69.12 687.24, 69.12 687.24, 96.12 676.62, 96.12 676.62, 123.12 687.24, 123.12 687.24, 150.12 676.62, 150.12 676.62, 184.68 687.24, 184.68 687.24, 219.24 643.6800000000001, 219.24 643.6800000000001, 208.62 600.12, 208.62 600.12, 219.24 573.12, 219.24 573.12, 208.62 546.12, 208.62 546.12, 219.24 519.12, 219.24 519.12, 208.62 492.12, 208.62 492.12, 219.24 465.12, 219.24 465.12, 208.62 438.12, 208.62 438.12, 219.24 411.12, 219.24 411.12, 208.62 384.12, 208.62 384.12, 219.24 357.12, 219.24 357.12, 208.62 330.12, 208.62 330.12, 219.24 303.12, 219.24 303.12, 208.62 276.12, 208.62 276.12, 219.24 249.12000000000003, 219.24 249.12000000000003, 208.62 222.12000000000003, 208.62 222.12000000000003, 219.24 195.12000000000003, 219.24 195.12000000000003, 208.62 168.12000000000003, 208.62 168.12000000000003, 219.24 141.12000000000003, 219.24 141.12000000000003, 208.62 114.12000000000003, 208.62 114.12000000000003, 219.24 87.12000000000003, 219.24 87.12000000000003, 208.62 43.56000000000002, 208.62 43.56000000000002, 219.24 0, 219.24 0, 184.68 10.62, 184.68 10.62, 150.12 0, 150.12 0, 123.12 10.62, 123.12 10.62, 96.12 0, 96.12 0, 69.12 10.62, 69.12 10.62, 34.56 0, 34.56 "/> 
</g>
<!-- Back--> 
<g transform="translate(709.74, 22.5) " > 
 <rect x="147.6" y="10.799999999999999" width="49.50000000000001" height="49.50000000000001" rx="0" ry="0" style="stroke:#000000;stroke-width:0.9;fill:none" /> 
 <rect x="475.20000000000005" y="10.799999999999999" width="49.50000000000001" height="49.50000000000001" rx="0" ry="0" style="stroke:#000000;stroke-width:0.9;fill:none" /> 
 
 <g transform="scale(0.010986328125)" ><g transform="translate(-3024,819)" ><path transform="translate(15073.28, 6717.44)rotate(180) scale(-1, 1)" stroke-width="0" fill="#000000" d="M1128 1036c0 -148 -50.5 -261.833 -151.5 -341.5s-245.5 -119.5 -433.5 -119.5h-172v-575h-170v1462h379c365.333 0 548 -142 548 -426zM371 721h153c150.667 0 259.667 24.333 327 73s101 126.667 101 234c0 96.667 -31.667 168.667 -95 216s-162 71 -296 71h-190v-594z"/>
<path transform="translate(16306.28, 6717.44)rotate(180) scale(-1, 1)" stroke-width="0" fill="#000000" d="M1122 549c0 -178.667 -44.999 -318.168 -134.999 -418.501s-214.333 -150.5 -373 -150.5c-98 0 -185 23 -261 69s-134.667 112 -176 198s-62 186.667 -62 302c0 178.667 44.667 317.834 134 417.501s213.333 149.5 372 149.5c153.333 0 275.166 -51 365.499 -153 s135.5 -240 135.5 -414zM287.001 548.999c0 -140 28 -246.667 84 -320s138.333 -110 247 -110s191.167 36.5 247.5 109.5s84.5 179.833 84.5 320.5c0 139.333 -28.167 245.166 -84.5 317.499s-139.5 108.5 -249.5 108.5c-108.667 0 -190.667 -35.667 -246 -107 s-83 -177.666 -83 -318.999z"/>
<path transform="translate(17543.28, 6717.44)rotate(180) scale(-1, 1)" stroke-width="0" fill="#000000" d="M1071 0l-200.998 643.002c-12.667 39.333 -36.334 128.666 -71.001 267.999h-8c-26.667 -116.667 -50 -206.667 -70 -270l-207 -641h-192l-299 1096h174l161.5 -629c37 -144 58.167 -241 63.5 -291h8c7.33301 38 19.166 87.167 35.499 147.5s30.5 108.166 42.5 143.499 l201 629h180l196 -629c37.333 -114.667 62.666 -211 75.999 -289h8c2.66699 24 9.83398 61 21.501 111s81.167 319 208.5 807h172l-303 -1096h-197z"/>
<path transform="translate(19136.28, 6717.44)rotate(180) scale(-1, 1)" stroke-width="0" fill="#000000" d="M639 -20c-162 0 -289.833 49.334 -383.5 148.001s-140.5 235.667 -140.5 411c0 176.667 43.5 317 130.5 421s203.833 156 350.5 156c137.333 0 246 -45.167 326 -135.5s120 -209.5 120 -357.5v-105h-755c3.33301 -128.667 35.833 -226.334 97.5 -293.001 s148.5 -100 260.5 -100c118 0 234.667 24.667 350 74v-148c-58.667 -25.333 -114.167 -43.5 -166.5 -54.5s-115.5 -16.5 -189.5 -16.5zM594 977.001c-88 0 -158.167 -28.6689 -210.5 -86.002s-83.166 -136.666 -92.499 -237.999h573c0 104.667 -23.333 184.834 -70 240.501 s-113.334 83.5 -200.001 83.5z"/>
<path transform="translate(20285.28, 6717.44)rotate(180) scale(-1, 1)" stroke-width="0" fill="#000000" d="M676 1116c48.667 0 92.333 -4 131 -12l-23 -154c-45.333 10 -85.333 15 -120 15c-88.667 0 -164.5 -36 -227.5 -108s-94.5 -161.667 -94.5 -269v-588h-166v1096h137l19 -203h8c40.667 71.333 89.667 126.333 147 165s120.333 58 189 58z"/>
</g></g> 
 
 <g transform="scale(0.010986328125)" ><g transform="translate(-2632,819)" ><path transform="translate(44892.16, 6717.44)rotate(180) scale(-1, 1)" stroke-width="0" fill="#000000" d="M371 608v-608h-170v1462h401c179.333 0 311.833 -34.333 397.5 -103s128.5 -172 128.5 -310c0 -193.333 -98 -324 -294 -392l397 -657h-201l-354 608h-305zM371 754l233 -0.000976562c120 0 208 23.833 264 71.5s84 119.167 84 214.5 c0 96.667 -28.5 166.334 -85.5 209.001s-148.5 64 -274.5 64h-221v-559z"/>
<path transform="translate(46158.16, 6717.44)rotate(180) scale(-1, 1)" stroke-width="0" fill="#000000" d="M639 -20c-162 0 -289.833 49.334 -383.5 148.001s-140.5 235.667 -140.5 411c0 176.667 43.5 317 130.5 421s203.833 156 350.5 156c137.333 0 246 -45.167 326 -135.5s120 -209.5 120 -357.5v-105h-755c3.33301 -128.667 35.833 -226.334 97.5 -293.001 s148.5 -100 260.5 -100c118 0 234.667 24.667 350 74v-148c-58.667 -25.333 -114.167 -43.5 -166.5 -54.5s-115.5 -16.5 -189.5 -16.5zM594 977.001c-88 0 -158.167 -28.6689 -210.5 -86.002s-83.166 -136.666 -92.499 -237.999h573c0 104.667 -23.333 184.834 -70 240.501 s-113.334 83.5 -200.001 83.5z"/>
<path transform="translate(47307.16, 6717.44)rotate(180) scale(-1, 1)" stroke-width="0" fill="#000000" d="M883 299c0 -102 -38.0029 -180.666 -114.003 -235.999s-182.667 -83 -320 -83c-145.333 0 -258.666 23 -339.999 69v154c52.667 -26.667 109.167 -47.667 169.5 -63s118.5 -23 174.5 -23c86.667 0 153.334 13.833 200.001 41.5s70 69.834 70 126.501 c0 42.667 -18.5 79.167 -55.5 109.5s-109.167 66.166 -216.5 107.499c-102 38 -174.5 71.167 -217.5 99.5s-75 60.5 -96 96.5s-31.5 79 -31.5 129c0 89.333 36.333 159.833 109 211.5s172.334 77.5 299.001 77.5c118 0 233.333 -24 346 -72l-59 -135 c-110 45.333 -209.667 68 -299 68c-78.667 0 -138 -12.333 -178 -37s-60 -58.667 -60 -102c0 -29.333 7.5 -54.333 22.5 -75s39.167 -40.334 72.5 -59.001s97.333 -45.667 192 -81c130 -47.333 217.833 -95 263.5 -143s68.5 -108.333 68.5 -181z"/>
<path transform="translate(48284.16, 6717.44)rotate(180) scale(-1, 1)" stroke-width="0" fill="#000000" d="M639 -20c-162 0 -289.833 49.334 -383.5 148.001s-140.5 235.667 -140.5 411c0 176.667 43.5 317 130.5 421s203.833 156 350.5 156c137.333 0 246 -45.167 326 -135.5s120 -209.5 120 -357.5v-105h-755c3.33301 -128.667 35.833 -226.334 97.5 -293.001 s148.5 -100 260.5 -100c118 0 234.667 24.667 350 74v-148c-58.667 -25.333 -114.167 -43.5 -166.5 -54.5s-115.5 -16.5 -189.5 -16.5zM594 977.001c-88 0 -158.167 -28.6689 -210.5 -86.002s-83.166 -136.666 -92.499 -237.999h573c0 104.667 -23.333 184.834 -70 240.501 s-113.334 83.5 -200.001 83.5z"/>
<path transform="translate(49433.16, 6717.44)rotate(180) scale(-1, 1)" stroke-width="0" fill="#000000" d="M530 117c29.333 0 57.667 2.16797 85 6.50098s49 8.83301 65 13.5v-127c-18 -8.66699 -44.5 -15.834 -79.5 -21.501s-66.5 -8.5 -94.5 -8.5c-212 0 -318 111.667 -318 335v652h-157v80l157 69l70 234h96v-254h318v-129h-318v-645c0 -66 15.667 -116.667 47 -152 s74.333 -53 129 -53z"/>
</g></g> 
<polygon style="stroke:#000000; fill:none; stroke-width:0.9" points="0, 0 43.56000000000002, 0 43.56000000000002, 10.62 87.12000000000003, 10.62 87.12000000000003, 0 114.12000000000003, 0 114.12000000000003, 10.62 141.12000000000003, 10.62 141.12000000000003, 0 168.12000000000003, 0 168.12000000000003, 10.62 195.12000000000003, 10.62 195.12000000000003, 0 222.12000000000003, 0 222.12000000000003, 10.62 249.12000000000003, 10.62 249.12000000000003, 0 276.12, 0 276.12, 10.62 303.12, 10.62 303.12, 0 330.12, 0 330.12, 10.62 357.12, 10.62 357.12, 0 384.12, 0 384.12, 10.62 411.12, 10.62 411.12, 0 438.12, 0 438.12, 10.62 465.12, 10.62 465.12, 0 492.12, 0 492.12, 10.62 519.12, 10.62 519.12, 0 546.12, 0 546.12, 10.62 573.12, 10.62 573.12, 0 600.12, 0 600.12, 10.62 643.6800000000001, 10.62 643.6800000000001, 0 687.24, 0 687.24, 34.56 676.62, 34.56 676.62, 69.12 687.24, 69.12 687.24, 96.12 676.62, 96.12 676.62, 123.12 687.24, 123.12 687.24, 150.12 676.62, 150.12 676.62, 184.68 687.24, 184.68 687.24, 219.24 643.6800000000001, 219.24 643.6800000000001, 208.62 600.12, 208.62 600.12, 219.24 573.12, 219.24 573.12, 208.62 546.12, 208.62 546.12, 219.24 519.12, 219.24 519.12, 208.62 492.12, 208.62 492.12, 219.24 465.12, 219.24 465.12, 208.62 438.12, 208.62 438.12, 219.24 411.12, 219.24 411.12, 208.62 384.12, 208.62 384.12, 219.24 357.12, 219.24 357.12, 208.62 330.12, 208.62 330.12, 219.24 303.12, 219.24 303.12, 208.62 276.12, 208.62 276.12, 219.24 249.12000000000003, 219.24 249.12000000000003, 208.62 222.12000000000003, 208.62 222.12000000000003, 219.24 195.12000000000003, 219.24 195.12000000000003, 208.62 168.12000000000003, 208.62 168.12000000000003, 219.24 141.12000000000003, 219.24 141.12000000000003, 208.62 114.12000000000003, 208.62 114.12000000000003, 219.24 87.12000000000003, 219.24 87.12000000000003, 208.62 43.56000000000002, 208.62 43.56000000000002, 219.24 0, 219.24 0, 184.68 10.62, 184.68 10.62, 150.12 0, 150.12 0, 123.12 10.62, 123.12 10.62, 96.12 0, 96.12 0, 69.12 10.62, 69.12 10.62, 34.56 0, 34.56 "/> 
</g>
<!-- Left--> 
<g transform="translate(1396.98, 22.5) " > 
<polygon style="stroke:#000000; fill:none; stroke-width:0.9" points="10.62, 0 34.55999999999999, 0 34.55999999999999, 10.62 69.11999999999998, 10.62 69.11999999999998, 0 96.11999999999998, 0 96.11999999999998, 10.62 123.11999999999998, 10.62 123.11999999999998, 0 150.11999999999998, 0 150.11999999999998, 10.62 177.11999999999998, 10.62 177.11999999999998, 0 204.11999999999998, 0 204.11999999999998, 10.62 231.11999999999998, 10.62 231.11999999999998, 0 258.12, 0 258.12, 10.62 285.12, 10.62 285.12, 0 312.12, 0 312.12, 10.62 346.67999999999995, 10.62 346.67999999999995, 0 370.61999999999995, 0 370.61999999999995, 34.56 381.23999999999995, 34.56 381.23999999999995, 69.12 370.61999999999995, 69.12 370.61999999999995, 96.12 381.23999999999995, 96.12 381.23999999999995, 123.12 370.61999999999995, 123.12 370.61999999999995, 150.12 381.23999999999995, 150.12 381.23999999999995, 184.68 370.61999999999995, 184.68 370.61999999999995, 219.24 346.67999999999995, 219.24 346.67999999999995, 208.62 312.12, 208.62 312.12, 219.24 285.12, 219.24 285.12, 208.62 258.12, 208.62 258.12, 219.24 231.11999999999998, 219.24 231.11999999999998, 208.62 204.11999999999998, 208.62 204.11999999999998, 219.24 177.11999999999998, 219.24 177.11999999999998, 208.62 150.11999999999998, 208.62 150.11999999999998, 219.24 123.11999999999998, 219.24 123.11999999999998, 208.62 96.11999999999998, 208.62 96.11999999999998, 219.24 69.11999999999998, 219.24 69.11999999999998, 208.62 34.55999999999999, 208.62 34.55999999999999, 219.24 10.62, 219.24 10.62, 184.68 0, 184.68 0, 150.12 10.62, 150.12 10.62, 123.12 0, 123.12 0, 96.12 10.62, 96.12 10.62, 69.12 0, 69.12 0, 34.56 10.62, 34.56 "/> 
</g>
<!-- Right--> 
<g transform="translate(1396.98, 241.74) " > 
<polygon style="stroke:#000000; fill:none; stroke-width:0.9" points="10.62, 0 34.55999999999999, 0 34.55999999999999, 10.62 69.11999999999998, 10.62 69.11999999999998, 0 96.11999999999998, 0 96.11999999999998, 10.62 123.11999999999998, 10.62 123.11999999999998, 0 150.11999999999998, 0 150.11999999999998, 10.62 177.11999999999998, 10.62 177.11999999999998, 0 204.11999999999998, 0 204.11999999999998, 10.62 231.11999999999998, 10.62 231.11999999999998, 0 258.12, 0 258.12, 10.62 285.12, 10.62 285.12, 0 312.12, 0 312.12, 10.62 346.67999999999995, 10.62 346.67999999999995, 0 370.61999999999995, 0 370.61999999999995, 34.56 381.23999999999995, 34.56 381.23999999999995, 69.12 370.61999999999995, 69.12 370.61999999999995, 96.12 381.23999999999995, 96.12 381.23999999999995, 123.12 370.61999999999995, 123.12 370.61999999999995, 150.12 381.23999999999995, 150.12 381.23999999999995, 184.68 370.61999999999995, 184.68 370.61999999999995, 219.24 346.67999999999995, 219.24 346.67999999999995, 208.62 312.12, 208.62 312.12, 219.24 285.12, 219.24 285.12, 208.62 258.12, 208.62 258.12, 219.24 231.11999999999998, 219.24 231.11999999999998, 208.62 204.11999999999998, 208.62 204.11999999999998, 219.24 177.11999999999998, 219.24 177.11999999999998, 208.62 150.11999999999998, 208.62 150.11999999999998, 219.24 123.11999999999998, 219.24 123.11999999999998, 208.62 96.11999999999998, 208.62 96.11999999999998, 219.24 69.11999999999998, 219.24 69.11999999999998, 208.62 34.55999999999999, 208.62 34.55999999999999, 219.24 10.62, 219.24 10.62, 184.68 0, 184.68 0, 150.12 10.62, 150.12 10.62, 123.12 0, 123.12 0, 96.12 10.62, 96.12 10.62, 69.12 0, 69.12 0, 34.56 10.62, 34.56 "/> 
</g>
<!-- Top--> 
<g transform="translate(22.5, 241.74) " > 
 <rect x="55.8" y="195.29999999999998" width="24.3" height="24.3" rx="0" ry="0" style="stroke:#000000;stroke-width:0.9;fill:none" /> 
 <rect x="69.3" y="108.89999999999999" width="27" height="27" rx="0" ry="0" style="stroke:#000000;stroke-width:0.9;fill:none" /> 
 <circle cx="59.400000000000006" cy="233.1" r="9.9" style="stroke:#000000;stroke-width:0.9;fill:none" /> 
 <circle cx="344.7" cy="221.4" r="11.25" style="stroke:#000000;stroke-width:0.9;fill:none" /> 
 <rect x="109.8" y="175.5" width="148.5" height="120.60000000000001" rx="0" ry="0" style="stroke:#000000;stroke-width:0.9;fill:none" /> 
<polygon style="stroke:#000000; fill:none; stroke-width:0.9" points="10.62, 10.62 43.56000000000002, 10.62 43.56000000000002, 0 87.12000000000003, 0 87.12000000000003, 10.62 114.12000000000003, 10.62 114.12000000000003, 0 141.12000000000003, 0 141.12000000000003, 10.62 168.12000000000003, 10.62 168.12000000000003, 0 195.12000000000003, 0 195.12000000000003, 10.62 222.12000000000003, 10.62 222.12000000000003, 0 249.12000000000003, 0 249.12000000000003, 10.62 276.12, 10.62 276.12, 0 303.12, 0 303.12, 10.62 330.12, 10.62 330.12, 0 357.12, 0 357.12, 10.62 384.12, 10.62 384.12, 0 411.12, 0 411.12, 10.62 438.12, 10.62 438.12, 0 465.12, 0 465.12, 10.62 492.12, 10.62 492.12, 0 519.12, 0 519.12, 10.62 546.12, 10.62 546.12, 0 573.12, 0 573.12, 10.62 600.12, 10.62 600.12, 0 643.6800000000001, 0 643.6800000000001, 10.62 676.62, 10.62 676.62, 34.55999999999999 687.24, 34.55999999999999 687.24, 69.11999999999998 676.62, 69.11999999999998 676.62, 96.11999999999998 687.24, 96.11999999999998 687.24, 123.11999999999998 676.62, 123.11999999999998 676.62, 150.11999999999998 687.24, 150.11999999999998 687.24, 177.11999999999998 676.62, 177.11999999999998 676.62, 204.11999999999998 687.24, 204.11999999999998 687.24, 231.11999999999998 676.62, 231.11999999999998 676.62, 258.12 687.24, 258.12 687.24, 285.12 676.62, 285.12 676.62, 312.12 687.24, 312.12 687.24, 346.67999999999995 676.62, 346.67999999999995 676.62, 370.61999999999995 643.6800000000001, 370.61999999999995 643.6800000000001, 381.23999999999995 600.12, 381.23999999999995 600.12, 370.61999999999995 573.12, 370.61999999999995 573.12, 381.23999999999995 546.12, 381.23999999999995 546.12, 370.61999999999995 519.12, 370.61999999999995 519.12, 381.23999999999995 492.12, 381.23999999999995 492.12, 370.61999999999995 465.12, 370.61999999999995 465.12, 381.23999999999995 438.12, 381.23999999999995 438.12, 370.61999999999995 411.12, 370.61999999999995 411.12, 381.23999999999995 384.12, 381.23999999999995 384.12, 370.61999999999995 357.12, 370.61999999999995 357.12, 381.23999999999995 330.12, 381.23999999999995 330.12, 370.61999999999995 303.12, 370.61999999999995 303.12, 381.23999999999995 276.12, 381.23999999999995 276.12, 370.61999999999995 249.12000000000003, 370.61999999999995 249.12000000000003, 381.23999999999995 222.12000000000003, 381.23999999999995 222.12000000000003, 370.61999999999995 195.12000000000003, 370.61999999999995 195.12000000000003, 381.23999999999995 168.12000000000003, 381.23999999999995 168.12000000000003, 370.61999999999995 141.12000000000003, 370.61999999999995 141.12000000000003, 381.23999999999995 114.12000000000003, 381.23999999999995 114.12000000000003, 370.61999999999995 87.12000000000003, 370.61999999999995 87.12000000000003, 381.23999999999995 43.56000000000002, 381.23999999999995 43.56000000000002, 370.61999999999995 10.62, 370.61999999999995 10.62, 346.67999999999995 0, 346.67999999999995 0, 312.12 10.62, 312.12 10.62, 285.12 0, 285.12 0, 258.12 10.62, 258.12 10.62, 231.11999999999998 0, 231.11999999999998 0, 204.11999999999998 10.62, 204.11999999999998 10.62, 177.11999999999998 0, 177.11999999999998 0, 150.11999999999998 10.62, 150.11999999999998 10.62, 123.11999999999998 0, 123.11999999999998 0, 96.11999999999998 10.62, 96.11999999999998 10.62, 69.11999999999998 0, 69.11999999999998 0, 34.55999999999999 10.62, 34.55999999999999 "/> 
</g>
<!-- Bottom--> 
<g transform="translate(709.74, 241.74) " > 
<polygon style="stroke:#000000; fill:none; stroke-width:0.9" points="10.62, 10.62 43.56000000000002, 10.62 43.56000000000002, 0 87.12000000000003, 0 87.12000000000003, 10.62 114.12000000000003, 10.62 114.12000000000003, 0 141.12000000000003, 0 141.12000000000003, 10.62 168.12000000000003, 10.62 168.12000000000003, 0 195.12000000000003, 0 195.12000000000003, 10.62 222.12000000000003, 10.62 222.12000000000003, 0 249.12000000000003, 0 249.12000000000003, 10.62 276.12, 10.62 276.12, 0 303.12, 0 303.12, 10.62 330.12, 10.62 330.12, 0 357.12, 0 357.12, 10.62 384.12, 10.62 384.12, 0 411.12, 0 411.12, 10.62 438.12, 10.62 438.12, 0 465.12, 0 465.12, 10.62 492.12, 10.62 492.12, 0 519.12, 0 519.12, 10.62 546.12, 10.62 546.12, 0 573.12, 0 573.12, 10.62 600.12, 10.62 600.12, 0 643.6800000000001, 0 643.6800000000001, 10.62 676.62, 10.62 676.62, 34.55999999999999 687.24, 34.55999999999999 687.24, 69.11999999999998 676.62, 69.11999999999998 676.62, 96.11999999999998 687.24, 96.11999999999998 687.24, 123.11999999999998 676.62, 123.11999999999998 676.62, 150.11999999999998 687.24, 150.11999999999998 687.24, 177.11999999999998 676.62, 177.11999999999998 676.62, 204.11999999999998 687.24, 204.11999999999998 687.24, 231.11999999999998 676.62, 231.11999999999998 676.62, 258.12 687.24, 258.12 687.24, 285.12 676.62, 285.12 676.62, 312.12 687.24, 312.12 687.24, 346.67999999999995 676.62, 346.67999999999995 676.62, 370.61999999999995 643.6800000000001, 370.61999999999995 643.6800000000001, 381.23999999999995 600.12, 381.23999999999995 600.12, 370.61999999999995 573.12, 370.61999999999995 573.12, 381.23999999999995 546.12, 381.23999999999995 546.12, 370.61999999999995 519.12, 370.61999999999995 519.12, 381.23999999999995 492.12, 381.23999999999995 492.12, 370.61999999999995 465.12, 370.61999999999995 465.12, 381.23999999999995 438.12, 381.23999999999995 438.12, 370.61999999999995 411.12, 370.61999999999995 411.12, 381.23999999999995 384.12, 381.23999999999995 384.12, 370.61999999999995 357.12, 370.61999999999995 357.12, 381.23999999999995 330.12, 381.23999999999995 330.12, 370.61999999999995 303.12, 370.61999999999995 303.12, 381.23999999999995 276.12, 381.23999999999995 276.12, 370.61999999999995 249.12000000000003, 370.61999999999995 249.12000000000003, 381.23999999999995 222.12000000000003, 381.23999999999995 222.12000000000003, 370.61999999999995 195.12000000000003, 370.61999999999995 195.12000000000003, 381.23999999999995 168.12000000000003, 381.23999999999995 168.12000000000003, 370.61999999999995 141.12000000000003, 370.61999999999995 141.12000000000003, 381.23999999999995 114.12000000000003, 381.23999999999995 114.12000000000003, 370.61999999999995 87.12000000000003, 370.61999999999995 87.12000000000003, 381.23999999999995 43.56000000000002, 381.23999999999995 43.56000000000002, 370.61999999999995 10.62, 370.61999999999995 10.62, 346.67999999999995 0, 346.67999999999995 0, 312.12 10.62, 312.12 10.62, 285.12 0, 285.12 0, 258.12 10.62, 258.12 10.62, 231.11999999999998 0, 231.11999999999998 0, 204.11999999999998 10.62, 204.11999999999998 10.62, 177.11999999999998 0, 177.11999999999998 0, 150.11999999999998 10.62, 150.11999999999998 10.62, 123.11999999999998 0, 123.11999999999998 0, 96.11999999999998 10.62, 96.11999999999998 10.62, 69.11999999999998 0, 69.11999999999998 0, 34.55999999999999 10.62, 34.55999999999999 "/> 
</g></svg>